<svg width="160" height="35" viewBox="0 0 160 35" fill="none" xmlns="http://www.w3.org/2000/svg">
<path d="M59.1865 21.8521C58.6234 22.3055 57.7897 22.5395 56.6927 22.5395H48.787V17.4787H56.7146C57.4459 17.4787 58.0529 17.5738 58.5502 17.764C59.0402 17.9541 59.4132 18.2393 59.6619 18.6123C59.9105 18.9853 60.0348 19.446 60.0348 19.9945C60.0348 20.777 59.7496 21.3914 59.1865 21.8521ZM60.8466 15.2482C59.7935 14.8606 58.5064 14.6631 56.9925 14.6631H44.8013V32.1126H48.7943V25.3332H56.9486C58.4259 25.3332 59.7057 25.1138 60.7735 24.675C61.8485 24.2362 62.6603 23.6146 63.2161 22.8028C63.7719 21.9984 64.0498 21.0184 64.0498 19.8775C64.0498 18.7366 63.7792 17.8152 63.2381 17.0253C62.6969 16.2355 61.8997 15.6431 60.8466 15.2555" fill="#522953"/>
<path d="M72.8475 24.6092H82.7716V21.8155H72.8475V17.5007H85.909V14.6558H68.8325V32.1126H86.1138V29.297H72.8475V24.6092Z" fill="#522953"/>
<path d="M102.342 25.6038H108.624C108.324 26.4375 107.849 27.1542 107.205 27.7612C106.555 28.3682 105.757 28.829 104.814 29.1434C103.871 29.4579 102.81 29.6188 101.647 29.6188C100.287 29.6188 99.0804 29.3848 98.0419 28.9094C97.0034 28.434 96.1916 27.732 95.5993 26.7886C95.0069 25.8525 94.7143 24.7262 94.7143 23.4098C94.7143 22.0934 95.0142 21.0696 95.6212 20.1188C96.2282 19.1754 97.0546 18.4441 98.115 17.9395C99.1681 17.4349 100.382 17.1789 101.742 17.1789C103.286 17.1789 104.595 17.4568 105.67 18.0126C106.737 18.5684 107.593 19.4168 108.222 20.543L112.01 19.6727C111.198 17.9249 109.911 16.5865 108.156 15.6577C106.401 14.729 104.251 14.2609 101.713 14.2609C99.5192 14.2609 97.5738 14.6558 95.8772 15.4457C94.1805 16.2355 92.8568 17.3471 91.8987 18.7878C90.9407 20.2285 90.4653 21.874 90.4653 23.7389C90.4653 25.5014 90.9188 27.0445 91.8402 28.3755C92.7544 29.7066 94.0196 30.7304 95.6285 31.4544C97.2374 32.1784 99.095 32.5368 101.187 32.5368C102.766 32.5368 104.185 32.332 105.436 31.9152C106.694 31.4983 107.739 30.884 108.588 30.0722C108.968 29.7066 109.304 29.3043 109.612 28.8728L110.606 32.1199H112.5V22.8979H102.327V25.6184L102.342 25.6038Z" fill="#522953"/>
<path d="M122.973 25.2528L126.746 17.4861L130.549 25.2528H122.973ZM124.801 14.6558L116.201 32.1053H119.638L121.598 28.0684H131.917L133.892 32.1053H138.104L129.277 14.6558H124.786H124.801Z" fill="#522953"/>
<path d="M159.122 24.3094C158.552 23.5927 157.653 23.0368 156.431 22.6273C155.21 22.2178 153.564 21.9252 151.509 21.7424C149.798 21.6108 148.489 21.4499 147.582 21.2597C146.675 21.0696 146.046 20.8282 145.688 20.5357C145.33 20.2432 145.154 19.8482 145.154 19.3509C145.154 18.8536 145.366 18.4295 145.79 18.0784C146.215 17.7274 146.814 17.4568 147.597 17.2667C148.379 17.0765 149.293 16.9814 150.339 16.9814C151.831 16.9814 153.191 17.157 154.413 17.5153C155.634 17.8737 156.746 18.349 157.74 18.9487L159.408 16.3818C158.391 15.7162 157.111 15.197 155.568 14.824C154.025 14.451 152.299 14.2609 150.405 14.2609C148.511 14.2609 146.953 14.4876 145.578 14.9337C144.203 15.3798 143.158 16.0234 142.434 16.8571C141.71 17.6908 141.359 18.6708 141.373 19.7971C141.388 20.8136 141.666 21.6473 142.192 22.3055C142.726 22.9637 143.604 23.483 144.825 23.8779C146.046 24.2655 147.67 24.5653 149.703 24.7628C151.465 24.931 152.804 25.0992 153.718 25.2747C154.632 25.4502 155.268 25.7062 155.641 26.0353C156.007 26.3644 156.19 26.8251 156.19 27.4102C156.19 27.9221 155.97 28.3682 155.532 28.7339C155.093 29.0996 154.449 29.3775 153.616 29.553C152.775 29.7358 151.795 29.8309 150.661 29.8309C148.899 29.8309 147.312 29.6115 145.9 29.1727C144.489 28.7339 143.275 28.1488 142.258 27.4175L140.466 30.0868C141.6 30.8694 143.019 31.4764 144.73 31.9152C146.441 32.354 148.43 32.5734 150.69 32.5734C152.621 32.5734 154.274 32.3466 155.663 31.9005C157.053 31.4544 158.121 30.8109 158.867 29.9698C159.612 29.1288 159.993 28.1342 159.993 26.9933C159.993 25.9329 159.708 25.0407 159.13 24.324" fill="#522953"/>
<path d="M4.98035 34.9136C4.97303 34.4456 4.98766 33.9921 4.57811 33.685L6.14316 28.7997C6.64777 28.2585 7.27672 27.4541 7.75939 26.8983C7.99342 26.6277 8.17625 26.4083 8.2055 26.0353C8.29326 24.8725 7.99342 23.7243 8.28595 22.5469C8.35908 22.2616 8.52729 21.9252 8.65161 21.6693C7.20358 21.6839 6.26748 22.5469 5.90182 23.8852C4.93647 27.3809 2.95457 27.615 2.31831 27.593C1.64549 27.5638 1.19938 27.0884 1.19938 27.0884C2.08429 26.7812 2.56696 26.3863 2.8083 25.4137C3.0277 24.5507 2.89606 23.7316 3.07889 22.9345C3.48844 21.1793 4.98034 19.9945 7.04269 20.3017C8.28595 20.4845 8.92952 21.1793 8.92952 21.1793C9.63159 20.2797 10.575 20.1042 11.7232 19.9214C12.7251 19.7678 14.0196 19.5923 14.1951 19.5777C14.3048 19.563 15.548 19.4021 15.5407 19.3656L15.3579 19.3436C15.0361 19.3436 14.8533 19.3436 14.5461 19.3363C12.5203 19.2851 9.86562 18.7586 8.68087 18.1662C7.65701 17.6616 7.5985 17.3837 7.5985 17.3837C8.38102 17.4202 9.33906 17.4934 9.89487 17.5153C11.2259 17.5592 11.9572 17.5884 13.2955 17.5373L13.3979 17.5153L13.3102 17.4787C11.7013 17.1789 10.202 16.9961 8.39565 16.6523C7.09388 16.4037 5.9457 16.0673 4.77557 15.4018C3.47381 14.6631 2.49383 13.4491 1.92339 12.0742L2.20861 12.1986C5.68973 13.727 9.24399 14.6412 13.003 15.2628L13.2297 15.2994L13.2444 15.2336C12.2497 14.8825 10.0996 14.2097 9.1416 13.8587C5.56541 12.5642 1.97459 11.5916 0.394917 7.21821C0.234025 6.76479 0.102386 6.29674 0 5.82869C4.2417 8.49072 8.67355 10.8602 13.3102 12.769L13.4711 12.8129L13.4272 12.7544C10.5311 10.9041 6.72091 8.81982 4.25633 6.50151C2.41338 4.7902 1.25057 2.58159 1.40415 0C4.03693 2.69129 13.2809 9.4122 14.8606 10.5458C15.7382 11.1747 16.3086 11.8548 17.0034 12.6666C17.5373 13.2882 18.0419 13.9391 18.5538 14.5827L18.7805 14.8679L19.468 13.8002C20.5869 11.9353 22.1446 9.77786 25.1577 9.23668L26.869 7.72283L26.4668 9.55115L26.4814 9.71935L29.6261 13.5881L29.7358 13.9757L29.5164 14.8825L28.4267 15.1019C28.3024 15.0873 27.8709 14.6193 27.71 14.5388C27.1762 14.2755 26.2693 14.0415 25.6477 13.8221C25.0699 13.6173 24.8359 13.493 24.4191 13.0176C23.9656 14.1 23.6804 15.2482 23.5341 16.411L24.6677 18.8536L28.3097 17.6396C28.8728 17.4787 29.0264 17.7859 29.1654 18.0638C29.7797 19.2486 30.2551 20.5796 30.8621 21.7863L29.9406 24.4995L28.9825 22.9052L29.8236 22.0934L29.9771 21.8375L28.1488 19.3509L23.3952 21.8082L21.9984 20.543L22.4152 22.3421C19.9287 23.7024 16.0527 24.3971 14.3267 24.6896C14.6193 23.1904 14.5169 22.7297 14.5169 22.7297C14.1 23.7462 13.6978 24.7993 13.0323 25.6842C11.6793 27.4906 9.33175 28.6827 7.42298 29.7724L5.66048 33.2242C6.2236 33.6777 6.6624 34.2335 6.8818 34.9282H4.96572L4.98035 34.9136Z" fill="#522953"/>
<path d="M16.016 34.9429C15.9501 34.7162 15.9136 34.4163 15.8478 34.1896C15.6649 33.5899 15.3651 33.4729 14.9628 33.0414C13.9024 31.8932 12.6811 30.3574 11.6938 29.1727C11.511 28.9533 11.3062 28.7339 11.5622 28.4633C11.862 28.1561 13.4709 27.3297 14.5167 25.4649L16.623 25.0114C16.623 25.0114 16.6157 25.304 16.5352 25.6257C16.2207 26.9056 15.4455 27.9806 14.3778 28.7778C14.2754 28.8582 13.7196 29.2604 13.7196 29.2604L16.1769 33.1365C16.8862 33.568 17.5518 34.1165 17.8223 34.9429H16.016Z" fill="#522953"/>
<path d="M26.5545 26.6569L24.7262 28.0903L24.6457 26.5399L26.006 25.8963L26.7154 23.0953L23.4902 22.7516L25.4283 21.523L27.8051 22.1007C28.1415 22.1812 28.2804 22.4445 28.1561 22.7882L26.5545 26.6496V26.6569Z" fill="#522953"/>
</svg>
