<svg xmlns="http://www.w3.org/2000/svg" viewBox="0 0 160 120" width="160" height="120">
  <rect width="160" height="120" fill="#ffffff"/>
  <g fill="#1a1a1a">
    <path d="M 30 60 Q 38 38 60 38 Q 80 38 92 50 Q 110 38 130 44 Q 124 50 110 56 Q 124 60 130 70 Q 116 76 104 72 Q 96 86 80 86 Q 60 86 46 76 Q 36 80 24 76 Q 30 70 36 66 Q 30 64 30 60 Z" fill="#ffffff" stroke="#1a1a1a" stroke-width="1.5"/>
    <circle cx="98" cy="50" r="2"/>
    <path d="M 100 48 L 110 44" stroke="#1a1a1a" stroke-width="1" fill="none"/>
    <path d="M 70 50 Q 80 56 96 56" stroke="#1a1a1a" stroke-width="0.6" fill="none" opacity="0.6"/>
    <path d="M 60 60 Q 70 66 86 66" stroke="#1a1a1a" stroke-width="0.6" fill="none" opacity="0.6"/>
  </g>
  <g fill="none" stroke="#1a1a1a" stroke-width="0.6" opacity="0.5">
    <path d="M 50 78 L 56 90 M 60 80 L 66 92 M 70 80 L 76 92"/>
  </g>
</svg>
