<svg xmlns="http://www.w3.org/2000/svg" viewBox="0 0 120 160" width="120" height="160">
  <rect width="120" height="160" fill="#ffffff"/>
  <g fill="#1a1a1a">
    <rect x="59" y="22" width="2" height="118"/>
    <g>
      <path d="M 60 28 Q 76 24 86 32 Q 80 32 60 36 Z"/>
      <path d="M 60 32 Q 34 26 24 36 Q 32 36 60 40 Z"/>
      <path d="M 60 40 Q 78 36 90 46 Q 82 46 60 50 Z"/>
      <path d="M 60 46 Q 32 42 22 52 Q 32 52 60 54 Z"/>
      <path d="M 60 54 Q 80 50 92 60 Q 84 60 60 64 Z"/>
      <path d="M 60 60 Q 30 56 20 66 Q 30 66 60 68 Z"/>
      <path d="M 60 68 Q 80 64 92 74 Q 84 74 60 78 Z"/>
      <path d="M 60 74 Q 30 70 20 80 Q 30 80 60 82 Z"/>
      <path d="M 60 82 Q 78 78 90 88 Q 82 88 60 92 Z"/>
      <path d="M 60 88 Q 32 84 22 94 Q 32 94 60 96 Z"/>
      <path d="M 60 96 Q 76 92 86 102 Q 80 102 60 106 Z"/>
      <path d="M 60 102 Q 36 98 28 108 Q 36 108 60 110 Z"/>
    </g>
    <path d="M 56 144 Q 60 134 64 144 Q 68 138 60 130 Q 52 138 56 144 Z" fill="none" stroke="#1a1a1a" stroke-width="1.5"/>
  </g>
</svg>
