<svg xmlns="http://www.w3.org/2000/svg" viewBox="0 0 200 160" width="200" height="160">
  <rect width="200" height="160" fill="#ffffff"/>
  <g fill="#1a1a1a">
    <rect x="62" y="14" width="6" height="14"/>
    <rect x="56" y="20" width="18" height="6"/>
    <rect x="40" y="36" width="120" height="14" transform="rotate(20 100 43)"/>
    <rect x="92" y="-30" width="14" height="160" transform="rotate(20 100 43)"/>
  </g>
  <g fill="#1a1a1a" stroke="#1a1a1a" stroke-width="0.6">
    <g transform="translate(100 96) rotate(8)">
      <line x1="0" y1="0" x2="86" y2="-30" stroke="#1a1a1a" stroke-width="1.6"/>
      <g transform="translate(8 -2) rotate(-12)"><path d="M 0 0 Q 8 -8 18 -6 L 16 0 Q 6 0 0 0 Z"/></g>
      <g transform="translate(22 -8) rotate(-16)"><path d="M 0 0 Q 10 -10 20 -8 L 18 0 Q 8 0 0 0 Z"/></g>
      <g transform="translate(40 -16) rotate(-20)"><path d="M 0 0 Q 12 -12 24 -10 L 22 0 Q 10 0 0 0 Z"/></g>
      <g transform="translate(60 -22) rotate(-22)"><path d="M 0 0 Q 12 -12 24 -10 L 22 0 Q 10 0 0 0 Z"/></g>
      <g transform="translate(8 4) rotate(12)"><path d="M 0 0 Q 8 8 18 6 L 16 0 Q 6 0 0 0 Z"/></g>
      <g transform="translate(22 -2) rotate(16)"><path d="M 0 0 Q 10 10 20 8 L 18 0 Q 8 0 0 0 Z"/></g>
      <g transform="translate(40 -10) rotate(20)"><path d="M 0 0 Q 12 12 24 10 L 22 0 Q 10 0 0 0 Z"/></g>
      <g transform="translate(60 -16) rotate(22)"><path d="M 0 0 Q 12 12 24 10 L 22 0 Q 10 0 0 0 Z"/></g>
    </g>
    <path d="M 96 100 Q 92 110 100 116 Q 98 110 102 104 Z" stroke-width="1"/>
    <path d="M 100 102 Q 110 110 102 118 Q 106 112 102 104 Z" stroke-width="1"/>
  </g>
</svg>
