<svg xmlns="http://www.w3.org/2000/svg" viewBox="0 0 120 160" width="120" height="160">
  <rect width="120" height="160" fill="#ffffff"/>
  <g fill="none" stroke="#1a1a1a" stroke-width="1.6" stroke-linejoin="round">
    <path d="M 60 14 Q 36 10 28 30 Q 22 50 36 60 Q 22 64 28 78 Q 38 90 56 84 Q 50 96 60 102 Q 70 96 64 84 Q 82 90 92 78 Q 98 64 84 60 Q 98 50 92 30 Q 84 10 60 14 Z" fill="#1a1a1a"/>
    <path d="M 50 28 Q 60 22 70 28 Q 76 38 70 48 Q 60 54 50 48 Q 44 38 50 28 Z" fill="#ffffff" stroke="#ffffff"/>
    <path d="M 56 30 Q 60 26 64 30 Q 68 36 64 44 Q 60 48 56 44 Q 52 36 56 30 Z" fill="#1a1a1a" stroke="none"/>
    <line x1="60" y1="100" x2="60" y2="150" stroke-width="2.4"/>
    <path d="M 60 116 Q 46 112 36 122 Q 50 124 60 122" stroke-width="1.6" fill="#1a1a1a"/>
    <path d="M 60 134 Q 76 130 86 140 Q 70 142 60 140" stroke-width="1.6" fill="#1a1a1a"/>
    <path d="M 58 110 L 56 106 M 62 124 L 64 120 M 58 138 L 56 134" stroke-width="0.8"/>
  </g>
</svg>
