<svg xmlns="http://www.w3.org/2000/svg" viewBox="0 0 120 160" width="120" height="160">
  <rect width="120" height="160" fill="#ffffff"/>
  <g fill="none" stroke="#1a1a1a" stroke-width="2.5" stroke-linejoin="round">
    <path d="M 22 56 Q 14 22 36 16 Q 46 14 50 24" />
    <path d="M 98 56 Q 106 22 84 16 Q 74 14 70 24" />
    <path d="M 22 56 Q 24 100 42 130 L 78 130 Q 96 100 98 56" />
    <line x1="44" y1="32" x2="44" y2="124" stroke-width="1.2"/>
    <line x1="52" y1="32" x2="52" y2="126" stroke-width="1.2"/>
    <line x1="60" y1="32" x2="60" y2="128" stroke-width="1.2"/>
    <line x1="68" y1="32" x2="68" y2="126" stroke-width="1.2"/>
    <line x1="76" y1="32" x2="76" y2="124" stroke-width="1.2"/>
    <line x1="20" y1="32" x2="100" y2="32" stroke-width="2.2"/>
    <path d="M 36 130 L 84 130 L 80 142 L 40 142 Z" fill="#1a1a1a"/>
    <ellipse cx="60" cy="146" rx="14" ry="3" fill="#1a1a1a" stroke="none"/>
  </g>
</svg>
