<svg xmlns="http://www.w3.org/2000/svg" viewBox="0 0 160 160" width="160" height="160">
  <rect width="160" height="160" fill="#ffffff"/>
  <g fill="#1a1a1a">
    <path d="M 80 12 Q 50 28 38 56 Q 24 70 30 90 Q 14 100 22 116 Q 18 130 38 130 Q 50 134 64 130 Q 80 138 96 130 Q 110 134 122 130 Q 142 130 138 116 Q 146 100 130 90 Q 136 70 122 56 Q 110 28 80 12 Z"/>
    <rect x="74" y="120" width="12" height="32" fill="#1a1a1a"/>
  </g>
  <g fill="#ffffff" opacity="0.5">
    <ellipse cx="60" cy="60" rx="6" ry="10"/>
    <ellipse cx="100" cy="50" rx="5" ry="8"/>
    <ellipse cx="50" cy="90" rx="4" ry="6"/>
    <ellipse cx="110" cy="100" rx="5" ry="8"/>
  </g>
</svg>
